<?xml version="1.0" encoding="utf-8"?>
<!-- Svg Vector Icons : http://www.onlinewebfonts.com/icon -->
<!DOCTYPE svg PUBLIC "-//W3C//DTD SVG 1.1//EN" "http://www.w3.org/Graphics/SVG/1.1/DTD/svg11.dtd">
<svg version="1.1" xmlns="http://www.w3.org/2000/svg" xmlns:xlink="http://www.w3.org/1999/xlink" x="0px" y="0px" viewBox="0 0 256 256" enable-background="new 0 0 256 256" xml:space="preserve">
<metadata> Svg Vector Icons : http://www.onlinewebfonts.com/icon </metadata>
<g><g><g><path fill="#000000" d="M71.3,23.4c-24.7,2.8-43.9,15.8-54.5,36.8C9,75.6,7.8,95.9,13.7,112l1.1,2.9H41h26.3l5.7-11.3c4.2-8.1,6.2-11.5,7.5-12.2c3.7-2,4.3-1.1,17.8,25.8l12.4,24.8l18.2-36.2c19.7-39.2,19.8-39.4,23.7-37.2c1.4,0.8,4.2,5.8,13.2,23.6l11.4,22.7h31.9h32l1.1-2.6c1.9-4.8,3.8-15.8,3.8-22.4c0-43.5-40.7-75.1-83-64.5c-11,2.8-22.5,9.3-30.6,17.5l-4.5,4.6l-5.2-5.2c-11.1-10.9-23.9-16.9-39.8-18.7C77.4,23,75.2,23,71.3,23.4z"/><path fill="#000000" d="M147.7,94.1c-1.8,3.5-9.9,19.6-17.9,35.7c-14.4,28.8-16.4,32.1-19.3,32.1c-2.3,0-5-4.3-16.5-27.5l-11.9-23.8l-3.4,6.7c-1.9,3.7-3.8,7.2-4.4,7.8c-0.9,1.1-3.1,1.2-27.4,1.2H20.6l1.5,2.1c0.8,1.2,24.4,25.2,52.5,53.4c48.3,48.4,51.2,51.1,53.4,51.1c2.2,0,5.1-2.8,52.7-50.4c27.7-27.8,51.3-51.8,52.5-53.4l2.2-2.8h-32.2c-29.8,0-32.2-0.1-33.1-1.2c-0.6-0.6-5.2-9.3-10.1-19.3l-9-18.1L147.7,94.1z"/></g></g></g>
</svg>